<mxfile host="app.diagrams.net" modified="2023-08-30T15:01:14.463Z" agent="Mozilla/5.0 (Macintosh; Intel Mac OS X 10_15_7) AppleWebKit/537.36 (KHTML, like Gecko) Chrome/116.0.0.0 Safari/537.36" etag="HYeKoSiV_-s-KCMc4Spp" version="21.6.9" type="device">
  <diagram name="Page-1" id="kZzkH0Fhlf61rBuQRZ1X">
    <mxGraphModel dx="1434" dy="790" grid="1" gridSize="10" guides="1" tooltips="1" connect="1" arrows="1" fold="1" page="1" pageScale="1" pageWidth="827" pageHeight="1169" math="0" shadow="0">
      <root>
        <mxCell id="0" />
        <mxCell id="1" parent="0" />
        <mxCell id="NEFv17FfercwadhQsIlZ-129" style="edgeStyle=orthogonalEdgeStyle;rounded=0;orthogonalLoop=1;jettySize=auto;html=1;" parent="1" source="NEFv17FfercwadhQsIlZ-7" target="NEFv17FfercwadhQsIlZ-8" edge="1">
          <mxGeometry relative="1" as="geometry" />
        </mxCell>
        <mxCell id="NEFv17FfercwadhQsIlZ-7" value="start" style="ellipse;whiteSpace=wrap;html=1;aspect=fixed;" parent="1" vertex="1">
          <mxGeometry x="334" y="430" width="40" height="40" as="geometry" />
        </mxCell>
        <mxCell id="NEFv17FfercwadhQsIlZ-15" value="no" style="edgeStyle=orthogonalEdgeStyle;rounded=0;orthogonalLoop=1;jettySize=auto;html=1;" parent="1" source="NEFv17FfercwadhQsIlZ-8" target="NEFv17FfercwadhQsIlZ-13" edge="1">
          <mxGeometry relative="1" as="geometry" />
        </mxCell>
        <mxCell id="NEFv17FfercwadhQsIlZ-20" style="edgeStyle=orthogonalEdgeStyle;rounded=0;orthogonalLoop=1;jettySize=auto;html=1;entryX=0.5;entryY=0;entryDx=0;entryDy=0;" parent="1" source="NEFv17FfercwadhQsIlZ-8" target="NEFv17FfercwadhQsIlZ-19" edge="1">
          <mxGeometry relative="1" as="geometry" />
        </mxCell>
        <mxCell id="NEFv17FfercwadhQsIlZ-21" value="yes" style="edgeLabel;html=1;align=center;verticalAlign=middle;resizable=0;points=[];" parent="NEFv17FfercwadhQsIlZ-20" vertex="1" connectable="0">
          <mxGeometry x="-0.2333" y="-1" relative="1" as="geometry">
            <mxPoint as="offset" />
          </mxGeometry>
        </mxCell>
        <mxCell id="NEFv17FfercwadhQsIlZ-8" value="Are all BSU attached ?" style="rhombus;whiteSpace=wrap;html=1;" parent="1" vertex="1">
          <mxGeometry x="314" y="560" width="80" height="80" as="geometry" />
        </mxCell>
        <mxCell id="NEFv17FfercwadhQsIlZ-17" style="edgeStyle=orthogonalEdgeStyle;rounded=0;orthogonalLoop=1;jettySize=auto;html=1;exitX=1;exitY=0.5;exitDx=0;exitDy=0;entryX=0.5;entryY=0;entryDx=0;entryDy=0;" parent="1" source="NEFv17FfercwadhQsIlZ-13" target="NEFv17FfercwadhQsIlZ-8" edge="1">
          <mxGeometry relative="1" as="geometry">
            <Array as="points">
              <mxPoint x="840" y="600" />
              <mxPoint x="840" y="520" />
              <mxPoint x="354" y="520" />
            </Array>
          </mxGeometry>
        </mxCell>
        <mxCell id="NEFv17FfercwadhQsIlZ-13" value="Attach missing BSU" style="rounded=0;whiteSpace=wrap;html=1;" parent="1" vertex="1">
          <mxGeometry x="460" y="570" width="140" height="60" as="geometry" />
        </mxCell>
        <mxCell id="NEFv17FfercwadhQsIlZ-23" style="edgeStyle=orthogonalEdgeStyle;rounded=0;orthogonalLoop=1;jettySize=auto;html=1;" parent="1" source="NEFv17FfercwadhQsIlZ-19" target="NEFv17FfercwadhQsIlZ-22" edge="1">
          <mxGeometry relative="1" as="geometry" />
        </mxCell>
        <mxCell id="VLocWE0LS9aWqX3UbAQ5-9" value="yes" style="edgeLabel;html=1;align=center;verticalAlign=middle;resizable=0;points=[];" vertex="1" connectable="0" parent="NEFv17FfercwadhQsIlZ-23">
          <mxGeometry x="-0.303" y="2" relative="1" as="geometry">
            <mxPoint y="1" as="offset" />
          </mxGeometry>
        </mxCell>
        <mxCell id="NEFv17FfercwadhQsIlZ-26" style="edgeStyle=orthogonalEdgeStyle;rounded=0;orthogonalLoop=1;jettySize=auto;html=1;exitX=0.5;exitY=1;exitDx=0;exitDy=0;" parent="1" source="NEFv17FfercwadhQsIlZ-19" target="NEFv17FfercwadhQsIlZ-25" edge="1">
          <mxGeometry relative="1" as="geometry" />
        </mxCell>
        <mxCell id="VLocWE0LS9aWqX3UbAQ5-10" value="no" style="edgeLabel;html=1;align=center;verticalAlign=middle;resizable=0;points=[];" vertex="1" connectable="0" parent="NEFv17FfercwadhQsIlZ-26">
          <mxGeometry x="-0.1833" relative="1" as="geometry">
            <mxPoint y="-5" as="offset" />
          </mxGeometry>
        </mxCell>
        <mxCell id="NEFv17FfercwadhQsIlZ-19" value="BSU count&lt;br&gt;= 0 ?" style="rhombus;whiteSpace=wrap;html=1;" parent="1" vertex="1">
          <mxGeometry x="314" y="700" width="80" height="80" as="geometry" />
        </mxCell>
        <mxCell id="NEFv17FfercwadhQsIlZ-24" style="edgeStyle=orthogonalEdgeStyle;rounded=0;orthogonalLoop=1;jettySize=auto;html=1;exitX=1;exitY=0.5;exitDx=0;exitDy=0;entryX=0.5;entryY=0;entryDx=0;entryDy=0;" parent="1" source="NEFv17FfercwadhQsIlZ-22" target="NEFv17FfercwadhQsIlZ-8" edge="1">
          <mxGeometry relative="1" as="geometry">
            <Array as="points">
              <mxPoint x="840" y="740" />
              <mxPoint x="840" y="520" />
              <mxPoint x="354" y="520" />
            </Array>
          </mxGeometry>
        </mxCell>
        <mxCell id="NEFv17FfercwadhQsIlZ-22" value="Create first BSU" style="rounded=0;whiteSpace=wrap;html=1;" parent="1" vertex="1">
          <mxGeometry x="460" y="710" width="140" height="60" as="geometry" />
        </mxCell>
        <mxCell id="NEFv17FfercwadhQsIlZ-28" style="edgeStyle=orthogonalEdgeStyle;rounded=0;orthogonalLoop=1;jettySize=auto;html=1;entryX=0;entryY=0.5;entryDx=0;entryDy=0;" parent="1" source="NEFv17FfercwadhQsIlZ-25" target="NEFv17FfercwadhQsIlZ-27" edge="1">
          <mxGeometry relative="1" as="geometry" />
        </mxCell>
        <mxCell id="VLocWE0LS9aWqX3UbAQ5-11" value="no" style="edgeLabel;html=1;align=center;verticalAlign=middle;resizable=0;points=[];" vertex="1" connectable="0" parent="NEFv17FfercwadhQsIlZ-28">
          <mxGeometry x="-0.1818" y="1" relative="1" as="geometry">
            <mxPoint y="1" as="offset" />
          </mxGeometry>
        </mxCell>
        <mxCell id="NEFv17FfercwadhQsIlZ-31" style="edgeStyle=orthogonalEdgeStyle;rounded=0;orthogonalLoop=1;jettySize=auto;html=1;exitX=0.5;exitY=1;exitDx=0;exitDy=0;" parent="1" source="VLocWE0LS9aWqX3UbAQ5-50" target="NEFv17FfercwadhQsIlZ-30" edge="1">
          <mxGeometry relative="1" as="geometry" />
        </mxCell>
        <mxCell id="NEFv17FfercwadhQsIlZ-25" value="Are PV&lt;br&gt;init ?" style="rhombus;whiteSpace=wrap;html=1;" parent="1" vertex="1">
          <mxGeometry x="314" y="840" width="80" height="80" as="geometry" />
        </mxCell>
        <mxCell id="NEFv17FfercwadhQsIlZ-36" style="edgeStyle=orthogonalEdgeStyle;rounded=0;orthogonalLoop=1;jettySize=auto;html=1;entryX=0.5;entryY=0;entryDx=0;entryDy=0;" parent="1" source="NEFv17FfercwadhQsIlZ-27" target="NEFv17FfercwadhQsIlZ-25" edge="1">
          <mxGeometry relative="1" as="geometry">
            <Array as="points">
              <mxPoint x="650" y="880" />
              <mxPoint x="650" y="820" />
              <mxPoint x="354" y="820" />
            </Array>
          </mxGeometry>
        </mxCell>
        <mxCell id="NEFv17FfercwadhQsIlZ-27" value="Init missing PV on BSU" style="rounded=0;whiteSpace=wrap;html=1;" parent="1" vertex="1">
          <mxGeometry x="460" y="850" width="140" height="60" as="geometry" />
        </mxCell>
        <mxCell id="NEFv17FfercwadhQsIlZ-34" value="no" style="edgeStyle=orthogonalEdgeStyle;rounded=0;orthogonalLoop=1;jettySize=auto;html=1;" parent="1" source="NEFv17FfercwadhQsIlZ-30" target="NEFv17FfercwadhQsIlZ-33" edge="1">
          <mxGeometry relative="1" as="geometry" />
        </mxCell>
        <mxCell id="NEFv17FfercwadhQsIlZ-43" style="edgeStyle=orthogonalEdgeStyle;rounded=0;orthogonalLoop=1;jettySize=auto;html=1;entryX=0.5;entryY=0;entryDx=0;entryDy=0;" parent="1" source="VLocWE0LS9aWqX3UbAQ5-53" target="NEFv17FfercwadhQsIlZ-38" edge="1">
          <mxGeometry relative="1" as="geometry" />
        </mxCell>
        <mxCell id="NEFv17FfercwadhQsIlZ-30" value="Is VG&lt;br&gt;created ?" style="rhombus;whiteSpace=wrap;html=1;" parent="1" vertex="1">
          <mxGeometry x="314" y="1140" width="80" height="80" as="geometry" />
        </mxCell>
        <mxCell id="VLocWE0LS9aWqX3UbAQ5-13" style="edgeStyle=orthogonalEdgeStyle;rounded=0;orthogonalLoop=1;jettySize=auto;html=1;entryX=0.5;entryY=0;entryDx=0;entryDy=0;" edge="1" parent="1" source="NEFv17FfercwadhQsIlZ-33" target="NEFv17FfercwadhQsIlZ-30">
          <mxGeometry relative="1" as="geometry">
            <Array as="points">
              <mxPoint x="650" y="1180" />
              <mxPoint x="650" y="1120" />
              <mxPoint x="354" y="1120" />
            </Array>
          </mxGeometry>
        </mxCell>
        <mxCell id="NEFv17FfercwadhQsIlZ-33" value="Create VG" style="rounded=0;whiteSpace=wrap;html=1;" parent="1" vertex="1">
          <mxGeometry x="460" y="1150" width="140" height="60" as="geometry" />
        </mxCell>
        <mxCell id="NEFv17FfercwadhQsIlZ-41" style="edgeStyle=orthogonalEdgeStyle;rounded=0;orthogonalLoop=1;jettySize=auto;html=1;" parent="1" source="NEFv17FfercwadhQsIlZ-38" target="NEFv17FfercwadhQsIlZ-40" edge="1">
          <mxGeometry relative="1" as="geometry" />
        </mxCell>
        <mxCell id="VLocWE0LS9aWqX3UbAQ5-23" value="no" style="edgeLabel;html=1;align=center;verticalAlign=middle;resizable=0;points=[];" vertex="1" connectable="0" parent="NEFv17FfercwadhQsIlZ-41">
          <mxGeometry x="-0.4242" y="-1" relative="1" as="geometry">
            <mxPoint x="11" y="-1" as="offset" />
          </mxGeometry>
        </mxCell>
        <mxCell id="VLocWE0LS9aWqX3UbAQ5-48" value="yes" style="edgeStyle=orthogonalEdgeStyle;rounded=0;orthogonalLoop=1;jettySize=auto;html=1;" edge="1" parent="1" source="NEFv17FfercwadhQsIlZ-38" target="NEFv17FfercwadhQsIlZ-53">
          <mxGeometry relative="1" as="geometry">
            <mxPoint x="354" y="1530" as="targetPoint" />
          </mxGeometry>
        </mxCell>
        <mxCell id="NEFv17FfercwadhQsIlZ-38" value="Is VG&lt;br&gt;extended ?" style="rhombus;whiteSpace=wrap;html=1;" parent="1" vertex="1">
          <mxGeometry x="314" y="1400" width="80" height="80" as="geometry" />
        </mxCell>
        <mxCell id="VLocWE0LS9aWqX3UbAQ5-15" style="edgeStyle=orthogonalEdgeStyle;rounded=0;orthogonalLoop=1;jettySize=auto;html=1;entryX=0.5;entryY=0;entryDx=0;entryDy=0;" edge="1" parent="1" source="NEFv17FfercwadhQsIlZ-40" target="NEFv17FfercwadhQsIlZ-38">
          <mxGeometry relative="1" as="geometry">
            <Array as="points">
              <mxPoint x="650" y="1440" />
              <mxPoint x="650" y="1380" />
              <mxPoint x="354" y="1380" />
            </Array>
          </mxGeometry>
        </mxCell>
        <mxCell id="NEFv17FfercwadhQsIlZ-40" value="Extend VG" style="rounded=0;whiteSpace=wrap;html=1;" parent="1" vertex="1">
          <mxGeometry x="460" y="1410" width="140" height="60" as="geometry" />
        </mxCell>
        <mxCell id="NEFv17FfercwadhQsIlZ-85" style="edgeStyle=orthogonalEdgeStyle;rounded=0;orthogonalLoop=1;jettySize=auto;html=1;entryX=0.5;entryY=0;entryDx=0;entryDy=0;" parent="1" source="NEFv17FfercwadhQsIlZ-53" target="VLocWE0LS9aWqX3UbAQ5-58" edge="1">
          <mxGeometry relative="1" as="geometry">
            <mxPoint x="354" y="1700" as="targetPoint" />
          </mxGeometry>
        </mxCell>
        <mxCell id="VLocWE0LS9aWqX3UbAQ5-21" value="yes" style="edgeLabel;html=1;align=center;verticalAlign=middle;resizable=0;points=[];" vertex="1" connectable="0" parent="NEFv17FfercwadhQsIlZ-85">
          <mxGeometry x="-0.22" y="2" relative="1" as="geometry">
            <mxPoint as="offset" />
          </mxGeometry>
        </mxCell>
        <mxCell id="NEFv17FfercwadhQsIlZ-92" value="no" style="edgeStyle=orthogonalEdgeStyle;rounded=0;orthogonalLoop=1;jettySize=auto;html=1;entryX=0;entryY=0.5;entryDx=0;entryDy=0;" parent="1" source="NEFv17FfercwadhQsIlZ-53" target="NEFv17FfercwadhQsIlZ-60" edge="1">
          <mxGeometry relative="1" as="geometry" />
        </mxCell>
        <mxCell id="NEFv17FfercwadhQsIlZ-53" value="Is LV&lt;br&gt;created ?" style="rhombus;whiteSpace=wrap;html=1;" parent="1" vertex="1">
          <mxGeometry x="314" y="1570" width="80" height="80" as="geometry" />
        </mxCell>
        <mxCell id="VLocWE0LS9aWqX3UbAQ5-16" style="edgeStyle=orthogonalEdgeStyle;rounded=0;orthogonalLoop=1;jettySize=auto;html=1;entryX=0.5;entryY=0;entryDx=0;entryDy=0;" edge="1" parent="1" source="NEFv17FfercwadhQsIlZ-60" target="NEFv17FfercwadhQsIlZ-53">
          <mxGeometry relative="1" as="geometry">
            <Array as="points">
              <mxPoint x="650" y="1610" />
              <mxPoint x="650" y="1550" />
              <mxPoint x="354" y="1550" />
            </Array>
          </mxGeometry>
        </mxCell>
        <mxCell id="NEFv17FfercwadhQsIlZ-60" value="Create LV" style="rounded=0;whiteSpace=wrap;html=1;" parent="1" vertex="1">
          <mxGeometry x="460" y="1580" width="140" height="60" as="geometry" />
        </mxCell>
        <mxCell id="NEFv17FfercwadhQsIlZ-86" style="edgeStyle=orthogonalEdgeStyle;rounded=0;orthogonalLoop=1;jettySize=auto;html=1;exitX=0.5;exitY=1;exitDx=0;exitDy=0;entryX=0.5;entryY=0;entryDx=0;entryDy=0;" parent="1" source="NEFv17FfercwadhQsIlZ-61" target="NEFv17FfercwadhQsIlZ-62" edge="1">
          <mxGeometry relative="1" as="geometry" />
        </mxCell>
        <mxCell id="VLocWE0LS9aWqX3UbAQ5-24" value="yes" style="edgeLabel;html=1;align=center;verticalAlign=middle;resizable=0;points=[];" vertex="1" connectable="0" parent="NEFv17FfercwadhQsIlZ-86">
          <mxGeometry x="-0.5167" y="1" relative="1" as="geometry">
            <mxPoint y="1" as="offset" />
          </mxGeometry>
        </mxCell>
        <mxCell id="NEFv17FfercwadhQsIlZ-90" style="edgeStyle=orthogonalEdgeStyle;rounded=0;orthogonalLoop=1;jettySize=auto;html=1;entryX=0;entryY=0.5;entryDx=0;entryDy=0;" parent="1" source="NEFv17FfercwadhQsIlZ-61" target="NEFv17FfercwadhQsIlZ-67" edge="1">
          <mxGeometry relative="1" as="geometry" />
        </mxCell>
        <mxCell id="VLocWE0LS9aWqX3UbAQ5-22" value="no" style="edgeLabel;html=1;align=center;verticalAlign=middle;resizable=0;points=[];" vertex="1" connectable="0" parent="NEFv17FfercwadhQsIlZ-90">
          <mxGeometry x="-0.303" y="1" relative="1" as="geometry">
            <mxPoint y="1" as="offset" />
          </mxGeometry>
        </mxCell>
        <mxCell id="NEFv17FfercwadhQsIlZ-61" value="Is FS&lt;br&gt;formated ?" style="rhombus;whiteSpace=wrap;html=1;" parent="1" vertex="1">
          <mxGeometry x="314" y="1871" width="80" height="80" as="geometry" />
        </mxCell>
        <mxCell id="NEFv17FfercwadhQsIlZ-87" style="edgeStyle=orthogonalEdgeStyle;rounded=0;orthogonalLoop=1;jettySize=auto;html=1;exitX=0.5;exitY=1;exitDx=0;exitDy=0;entryX=0.5;entryY=0;entryDx=0;entryDy=0;" parent="1" source="NEFv17FfercwadhQsIlZ-62" target="NEFv17FfercwadhQsIlZ-63" edge="1">
          <mxGeometry relative="1" as="geometry" />
        </mxCell>
        <mxCell id="VLocWE0LS9aWqX3UbAQ5-27" value="yes" style="edgeLabel;html=1;align=center;verticalAlign=middle;resizable=0;points=[];" vertex="1" connectable="0" parent="NEFv17FfercwadhQsIlZ-87">
          <mxGeometry x="-0.55" y="-2" relative="1" as="geometry">
            <mxPoint y="1" as="offset" />
          </mxGeometry>
        </mxCell>
        <mxCell id="NEFv17FfercwadhQsIlZ-93" style="edgeStyle=orthogonalEdgeStyle;rounded=0;orthogonalLoop=1;jettySize=auto;html=1;entryX=0;entryY=0.5;entryDx=0;entryDy=0;" parent="1" source="NEFv17FfercwadhQsIlZ-62" target="NEFv17FfercwadhQsIlZ-68" edge="1">
          <mxGeometry relative="1" as="geometry" />
        </mxCell>
        <mxCell id="VLocWE0LS9aWqX3UbAQ5-26" value="no" style="edgeLabel;html=1;align=center;verticalAlign=middle;resizable=0;points=[];" vertex="1" connectable="0" parent="NEFv17FfercwadhQsIlZ-93">
          <mxGeometry x="-0.2727" y="1" relative="1" as="geometry">
            <mxPoint y="1" as="offset" />
          </mxGeometry>
        </mxCell>
        <mxCell id="NEFv17FfercwadhQsIlZ-62" value="Is FS&lt;br&gt;mounted ?" style="rhombus;whiteSpace=wrap;html=1;" parent="1" vertex="1">
          <mxGeometry x="314" y="2011" width="80" height="80" as="geometry" />
        </mxCell>
        <mxCell id="NEFv17FfercwadhQsIlZ-65" style="edgeStyle=orthogonalEdgeStyle;rounded=0;orthogonalLoop=1;jettySize=auto;html=1;entryX=0;entryY=0.5;entryDx=0;entryDy=0;" parent="1" source="NEFv17FfercwadhQsIlZ-63" target="NEFv17FfercwadhQsIlZ-64" edge="1">
          <mxGeometry relative="1" as="geometry" />
        </mxCell>
        <mxCell id="VLocWE0LS9aWqX3UbAQ5-28" value="yes" style="edgeLabel;html=1;align=center;verticalAlign=middle;resizable=0;points=[];" vertex="1" connectable="0" parent="NEFv17FfercwadhQsIlZ-65">
          <mxGeometry x="-0.3939" relative="1" as="geometry">
            <mxPoint x="10" as="offset" />
          </mxGeometry>
        </mxCell>
        <mxCell id="NEFv17FfercwadhQsIlZ-88" style="edgeStyle=orthogonalEdgeStyle;rounded=0;orthogonalLoop=1;jettySize=auto;html=1;exitX=0.5;exitY=1;exitDx=0;exitDy=0;entryX=0.5;entryY=0;entryDx=0;entryDy=0;" parent="1" source="NEFv17FfercwadhQsIlZ-63" target="NEFv17FfercwadhQsIlZ-70" edge="1">
          <mxGeometry relative="1" as="geometry" />
        </mxCell>
        <mxCell id="VLocWE0LS9aWqX3UbAQ5-29" value="no" style="edgeLabel;html=1;align=center;verticalAlign=middle;resizable=0;points=[];" vertex="1" connectable="0" parent="NEFv17FfercwadhQsIlZ-88">
          <mxGeometry x="-0.6714" y="1" relative="1" as="geometry">
            <mxPoint x="-1" y="-6" as="offset" />
          </mxGeometry>
        </mxCell>
        <mxCell id="NEFv17FfercwadhQsIlZ-63" value="BSUs&lt;br&gt;=&lt;br&gt;max" style="rhombus;whiteSpace=wrap;html=1;" parent="1" vertex="1">
          <mxGeometry x="314" y="2151" width="80" height="80" as="geometry" />
        </mxCell>
        <mxCell id="NEFv17FfercwadhQsIlZ-66" style="edgeStyle=orthogonalEdgeStyle;rounded=0;orthogonalLoop=1;jettySize=auto;html=1;entryX=0.5;entryY=0;entryDx=0;entryDy=0;" parent="1" source="NEFv17FfercwadhQsIlZ-64" target="NEFv17FfercwadhQsIlZ-8" edge="1">
          <mxGeometry relative="1" as="geometry">
            <Array as="points">
              <mxPoint x="840" y="2191" />
              <mxPoint x="840" y="520" />
              <mxPoint x="354" y="520" />
            </Array>
          </mxGeometry>
        </mxCell>
        <mxCell id="NEFv17FfercwadhQsIlZ-64" value="Remove smallest BSU&lt;br&gt;from drive" style="rounded=0;whiteSpace=wrap;html=1;" parent="1" vertex="1">
          <mxGeometry x="460" y="2161" width="140" height="60" as="geometry" />
        </mxCell>
        <mxCell id="VLocWE0LS9aWqX3UbAQ5-19" style="edgeStyle=orthogonalEdgeStyle;rounded=0;orthogonalLoop=1;jettySize=auto;html=1;entryX=0.5;entryY=0;entryDx=0;entryDy=0;" edge="1" parent="1" source="NEFv17FfercwadhQsIlZ-67" target="NEFv17FfercwadhQsIlZ-61">
          <mxGeometry relative="1" as="geometry">
            <Array as="points">
              <mxPoint x="650" y="1911" />
              <mxPoint x="650" y="1851" />
              <mxPoint x="354" y="1851" />
            </Array>
          </mxGeometry>
        </mxCell>
        <mxCell id="NEFv17FfercwadhQsIlZ-67" value="Format FS" style="rounded=0;whiteSpace=wrap;html=1;" parent="1" vertex="1">
          <mxGeometry x="460" y="1881" width="140" height="60" as="geometry" />
        </mxCell>
        <mxCell id="VLocWE0LS9aWqX3UbAQ5-25" style="edgeStyle=orthogonalEdgeStyle;rounded=0;orthogonalLoop=1;jettySize=auto;html=1;entryX=0.5;entryY=0;entryDx=0;entryDy=0;" edge="1" parent="1" source="NEFv17FfercwadhQsIlZ-68" target="NEFv17FfercwadhQsIlZ-62">
          <mxGeometry relative="1" as="geometry">
            <Array as="points">
              <mxPoint x="650" y="2051" />
              <mxPoint x="650" y="1991" />
              <mxPoint x="354" y="1991" />
            </Array>
          </mxGeometry>
        </mxCell>
        <mxCell id="NEFv17FfercwadhQsIlZ-68" value="Mount FS" style="rounded=0;whiteSpace=wrap;html=1;" parent="1" vertex="1">
          <mxGeometry x="460" y="2021" width="140" height="60" as="geometry" />
        </mxCell>
        <mxCell id="NEFv17FfercwadhQsIlZ-76" style="edgeStyle=orthogonalEdgeStyle;rounded=0;orthogonalLoop=1;jettySize=auto;html=1;" parent="1" source="NEFv17FfercwadhQsIlZ-70" target="NEFv17FfercwadhQsIlZ-71" edge="1">
          <mxGeometry relative="1" as="geometry">
            <mxPoint x="394" y="2451" as="sourcePoint" />
          </mxGeometry>
        </mxCell>
        <mxCell id="NEFv17FfercwadhQsIlZ-78" value="yes" style="edgeLabel;html=1;align=center;verticalAlign=middle;resizable=0;points=[];" parent="NEFv17FfercwadhQsIlZ-76" vertex="1" connectable="0">
          <mxGeometry y="-1" relative="1" as="geometry">
            <mxPoint x="-18" y="-1" as="offset" />
          </mxGeometry>
        </mxCell>
        <mxCell id="NEFv17FfercwadhQsIlZ-107" style="edgeStyle=orthogonalEdgeStyle;rounded=0;orthogonalLoop=1;jettySize=auto;html=1;entryX=0.5;entryY=0;entryDx=0;entryDy=0;" parent="1" source="NEFv17FfercwadhQsIlZ-70" target="NEFv17FfercwadhQsIlZ-97" edge="1">
          <mxGeometry relative="1" as="geometry" />
        </mxCell>
        <mxCell id="VLocWE0LS9aWqX3UbAQ5-30" value="no" style="edgeLabel;html=1;align=center;verticalAlign=middle;resizable=0;points=[];" vertex="1" connectable="0" parent="NEFv17FfercwadhQsIlZ-107">
          <mxGeometry x="-0.6325" relative="1" as="geometry">
            <mxPoint y="-35" as="offset" />
          </mxGeometry>
        </mxCell>
        <mxCell id="NEFv17FfercwadhQsIlZ-70" value="Is drive&lt;br&gt;low space&lt;br&gt;left ?" style="rhombus;whiteSpace=wrap;html=1;" parent="1" vertex="1">
          <mxGeometry x="314" y="2411" width="80" height="80" as="geometry" />
        </mxCell>
        <mxCell id="NEFv17FfercwadhQsIlZ-123" style="edgeStyle=orthogonalEdgeStyle;rounded=0;orthogonalLoop=1;jettySize=auto;html=1;entryX=0.5;entryY=0;entryDx=0;entryDy=0;" parent="1" source="NEFv17FfercwadhQsIlZ-71" target="NEFv17FfercwadhQsIlZ-73" edge="1">
          <mxGeometry relative="1" as="geometry" />
        </mxCell>
        <mxCell id="NEFv17FfercwadhQsIlZ-124" value="yes" style="edgeLabel;html=1;align=center;verticalAlign=middle;resizable=0;points=[];" parent="NEFv17FfercwadhQsIlZ-123" vertex="1" connectable="0">
          <mxGeometry x="-0.1167" y="3" relative="1" as="geometry">
            <mxPoint x="-3" y="-1" as="offset" />
          </mxGeometry>
        </mxCell>
        <mxCell id="VLocWE0LS9aWqX3UbAQ5-31" style="edgeStyle=orthogonalEdgeStyle;rounded=0;orthogonalLoop=1;jettySize=auto;html=1;entryX=0;entryY=0.5;entryDx=0;entryDy=0;" edge="1" parent="1" source="NEFv17FfercwadhQsIlZ-71" target="VLocWE0LS9aWqX3UbAQ5-8">
          <mxGeometry relative="1" as="geometry" />
        </mxCell>
        <mxCell id="VLocWE0LS9aWqX3UbAQ5-41" value="no" style="edgeLabel;html=1;align=center;verticalAlign=middle;resizable=0;points=[];" vertex="1" connectable="0" parent="VLocWE0LS9aWqX3UbAQ5-31">
          <mxGeometry x="-0.2444" y="-1" relative="1" as="geometry">
            <mxPoint as="offset" />
          </mxGeometry>
        </mxCell>
        <mxCell id="NEFv17FfercwadhQsIlZ-71" value="max allowed&lt;br&gt;space&amp;nbsp;?" style="rhombus;whiteSpace=wrap;html=1;" parent="1" vertex="1">
          <mxGeometry x="490" y="2411" width="80" height="80" as="geometry" />
        </mxCell>
        <mxCell id="VLocWE0LS9aWqX3UbAQ5-36" style="edgeStyle=orthogonalEdgeStyle;rounded=0;orthogonalLoop=1;jettySize=auto;html=1;entryX=0.5;entryY=0;entryDx=0;entryDy=0;" edge="1" parent="1" source="NEFv17FfercwadhQsIlZ-72" target="NEFv17FfercwadhQsIlZ-8">
          <mxGeometry relative="1" as="geometry">
            <Array as="points">
              <mxPoint x="840" y="2301" />
              <mxPoint x="840" y="520" />
              <mxPoint x="354" y="520" />
            </Array>
          </mxGeometry>
        </mxCell>
        <mxCell id="NEFv17FfercwadhQsIlZ-72" value="Create larger BSU" style="rounded=0;whiteSpace=wrap;html=1;" parent="1" vertex="1">
          <mxGeometry x="630" y="2271" width="140" height="60" as="geometry" />
        </mxCell>
        <mxCell id="NEFv17FfercwadhQsIlZ-73" value="end" style="ellipse;whiteSpace=wrap;html=1;aspect=fixed;" parent="1" vertex="1">
          <mxGeometry x="510" y="2565" width="40" height="40" as="geometry" />
        </mxCell>
        <mxCell id="NEFv17FfercwadhQsIlZ-127" style="edgeStyle=orthogonalEdgeStyle;rounded=0;orthogonalLoop=1;jettySize=auto;html=1;entryX=0.5;entryY=0;entryDx=0;entryDy=0;" parent="1" source="NEFv17FfercwadhQsIlZ-97" target="NEFv17FfercwadhQsIlZ-125" edge="1">
          <mxGeometry relative="1" as="geometry" />
        </mxCell>
        <mxCell id="NEFv17FfercwadhQsIlZ-128" value="no" style="edgeLabel;html=1;align=center;verticalAlign=middle;resizable=0;points=[];" parent="NEFv17FfercwadhQsIlZ-127" vertex="1" connectable="0">
          <mxGeometry x="-0.1222" y="3" relative="1" as="geometry">
            <mxPoint x="-3" y="-20" as="offset" />
          </mxGeometry>
        </mxCell>
        <mxCell id="VLocWE0LS9aWqX3UbAQ5-5" style="edgeStyle=orthogonalEdgeStyle;rounded=0;orthogonalLoop=1;jettySize=auto;html=1;" edge="1" parent="1" source="NEFv17FfercwadhQsIlZ-97" target="NEFv17FfercwadhQsIlZ-98">
          <mxGeometry relative="1" as="geometry" />
        </mxCell>
        <mxCell id="VLocWE0LS9aWqX3UbAQ5-6" value="yes" style="edgeLabel;html=1;align=center;verticalAlign=middle;resizable=0;points=[];" vertex="1" connectable="0" parent="VLocWE0LS9aWqX3UbAQ5-5">
          <mxGeometry x="-0.0208" y="1" relative="1" as="geometry">
            <mxPoint x="-17" y="1" as="offset" />
          </mxGeometry>
        </mxCell>
        <mxCell id="NEFv17FfercwadhQsIlZ-97" value="Is drive&lt;br&gt;high space&lt;br&gt;left ?" style="rhombus;whiteSpace=wrap;html=1;" parent="1" vertex="1">
          <mxGeometry x="314" y="2811" width="80" height="80" as="geometry" />
        </mxCell>
        <mxCell id="NEFv17FfercwadhQsIlZ-110" style="edgeStyle=orthogonalEdgeStyle;rounded=0;orthogonalLoop=1;jettySize=auto;html=1;entryX=0.5;entryY=0;entryDx=0;entryDy=0;" parent="1" source="NEFv17FfercwadhQsIlZ-98" target="NEFv17FfercwadhQsIlZ-99" edge="1">
          <mxGeometry relative="1" as="geometry" />
        </mxCell>
        <mxCell id="NEFv17FfercwadhQsIlZ-111" value="yes" style="edgeLabel;html=1;align=center;verticalAlign=middle;resizable=0;points=[];" parent="NEFv17FfercwadhQsIlZ-110" vertex="1" connectable="0">
          <mxGeometry x="-0.1143" y="-1" relative="1" as="geometry">
            <mxPoint x="1" y="-12" as="offset" />
          </mxGeometry>
        </mxCell>
        <mxCell id="NEFv17FfercwadhQsIlZ-113" value="no" style="edgeStyle=orthogonalEdgeStyle;rounded=0;orthogonalLoop=1;jettySize=auto;html=1;entryX=0;entryY=0.5;entryDx=0;entryDy=0;" parent="1" source="NEFv17FfercwadhQsIlZ-98" target="NEFv17FfercwadhQsIlZ-106" edge="1">
          <mxGeometry relative="1" as="geometry">
            <mxPoint x="630" y="2851" as="targetPoint" />
          </mxGeometry>
        </mxCell>
        <mxCell id="NEFv17FfercwadhQsIlZ-98" value="BSU count&lt;br&gt;= 1 ?" style="rhombus;whiteSpace=wrap;html=1;" parent="1" vertex="1">
          <mxGeometry x="490" y="2811" width="80" height="80" as="geometry" />
        </mxCell>
        <mxCell id="NEFv17FfercwadhQsIlZ-116" style="edgeStyle=orthogonalEdgeStyle;rounded=0;orthogonalLoop=1;jettySize=auto;html=1;entryX=0.5;entryY=0;entryDx=0;entryDy=0;" parent="1" source="NEFv17FfercwadhQsIlZ-99" target="NEFv17FfercwadhQsIlZ-100" edge="1">
          <mxGeometry relative="1" as="geometry" />
        </mxCell>
        <mxCell id="NEFv17FfercwadhQsIlZ-117" value="yes" style="edgeLabel;html=1;align=center;verticalAlign=middle;resizable=0;points=[];" parent="NEFv17FfercwadhQsIlZ-116" vertex="1" connectable="0">
          <mxGeometry x="-0.2" y="-2" relative="1" as="geometry">
            <mxPoint as="offset" />
          </mxGeometry>
        </mxCell>
        <mxCell id="NEFv17FfercwadhQsIlZ-119" value="no" style="edgeStyle=orthogonalEdgeStyle;rounded=0;orthogonalLoop=1;jettySize=auto;html=1;entryX=0;entryY=0.5;entryDx=0;entryDy=0;" parent="1" source="NEFv17FfercwadhQsIlZ-99" target="NEFv17FfercwadhQsIlZ-118" edge="1">
          <mxGeometry relative="1" as="geometry" />
        </mxCell>
        <mxCell id="NEFv17FfercwadhQsIlZ-99" value="Has&lt;br&gt;minimal&lt;br&gt;size ?" style="rhombus;whiteSpace=wrap;html=1;" parent="1" vertex="1">
          <mxGeometry x="490" y="2964" width="80" height="80" as="geometry" />
        </mxCell>
        <mxCell id="NEFv17FfercwadhQsIlZ-100" value="end" style="ellipse;whiteSpace=wrap;html=1;aspect=fixed;" parent="1" vertex="1">
          <mxGeometry x="510" y="3114" width="40" height="40" as="geometry" />
        </mxCell>
        <mxCell id="NEFv17FfercwadhQsIlZ-112" style="edgeStyle=orthogonalEdgeStyle;rounded=0;orthogonalLoop=1;jettySize=auto;html=1;entryX=0.5;entryY=0;entryDx=0;entryDy=0;" parent="1" target="NEFv17FfercwadhQsIlZ-8" edge="1">
          <mxGeometry relative="1" as="geometry">
            <Array as="points">
              <mxPoint x="840" y="2067" />
              <mxPoint x="840" y="520" />
              <mxPoint x="354" y="520" />
            </Array>
            <mxPoint x="840" y="2210" as="sourcePoint" />
          </mxGeometry>
        </mxCell>
        <mxCell id="VLocWE0LS9aWqX3UbAQ5-7" style="edgeStyle=orthogonalEdgeStyle;rounded=0;orthogonalLoop=1;jettySize=auto;html=1;entryX=0.5;entryY=0;entryDx=0;entryDy=0;" edge="1" parent="1" source="NEFv17FfercwadhQsIlZ-106" target="NEFv17FfercwadhQsIlZ-8">
          <mxGeometry relative="1" as="geometry">
            <Array as="points">
              <mxPoint x="840" y="2851" />
              <mxPoint x="840" y="520" />
              <mxPoint x="354" y="520" />
            </Array>
          </mxGeometry>
        </mxCell>
        <mxCell id="NEFv17FfercwadhQsIlZ-106" value="Remove largest BSU&lt;br&gt;from drive" style="rounded=0;whiteSpace=wrap;html=1;" parent="1" vertex="1">
          <mxGeometry x="630" y="2821" width="140" height="60" as="geometry" />
        </mxCell>
        <mxCell id="NEFv17FfercwadhQsIlZ-120" style="edgeStyle=orthogonalEdgeStyle;rounded=0;orthogonalLoop=1;jettySize=auto;html=1;entryX=0.5;entryY=0;entryDx=0;entryDy=0;exitX=1;exitY=0.5;exitDx=0;exitDy=0;" parent="1" source="NEFv17FfercwadhQsIlZ-118" target="NEFv17FfercwadhQsIlZ-8" edge="1">
          <mxGeometry relative="1" as="geometry">
            <Array as="points">
              <mxPoint x="840" y="3004" />
              <mxPoint x="840" y="520" />
              <mxPoint x="354" y="520" />
            </Array>
          </mxGeometry>
        </mxCell>
        <mxCell id="NEFv17FfercwadhQsIlZ-118" value="Create ideal sized BSU" style="rounded=0;whiteSpace=wrap;html=1;" parent="1" vertex="1">
          <mxGeometry x="630" y="2974" width="140" height="60" as="geometry" />
        </mxCell>
        <mxCell id="NEFv17FfercwadhQsIlZ-125" value="end" style="ellipse;whiteSpace=wrap;html=1;aspect=fixed;" parent="1" vertex="1">
          <mxGeometry x="334" y="2981" width="40" height="40" as="geometry" />
        </mxCell>
        <mxCell id="VLocWE0LS9aWqX3UbAQ5-32" style="edgeStyle=orthogonalEdgeStyle;rounded=0;orthogonalLoop=1;jettySize=auto;html=1;" edge="1" parent="1" source="VLocWE0LS9aWqX3UbAQ5-8" target="NEFv17FfercwadhQsIlZ-72">
          <mxGeometry relative="1" as="geometry" />
        </mxCell>
        <mxCell id="VLocWE0LS9aWqX3UbAQ5-38" value="yes" style="edgeLabel;html=1;align=center;verticalAlign=middle;resizable=0;points=[];" vertex="1" connectable="0" parent="VLocWE0LS9aWqX3UbAQ5-32">
          <mxGeometry x="-0.175" y="1" relative="1" as="geometry">
            <mxPoint x="1" y="13" as="offset" />
          </mxGeometry>
        </mxCell>
        <mxCell id="VLocWE0LS9aWqX3UbAQ5-42" style="edgeStyle=orthogonalEdgeStyle;rounded=0;orthogonalLoop=1;jettySize=auto;html=1;" edge="1" parent="1" source="VLocWE0LS9aWqX3UbAQ5-8" target="VLocWE0LS9aWqX3UbAQ5-40">
          <mxGeometry relative="1" as="geometry" />
        </mxCell>
        <mxCell id="VLocWE0LS9aWqX3UbAQ5-45" value="no" style="edgeLabel;html=1;align=center;verticalAlign=middle;resizable=0;points=[];" vertex="1" connectable="0" parent="VLocWE0LS9aWqX3UbAQ5-42">
          <mxGeometry x="-0.2222" relative="1" as="geometry">
            <mxPoint as="offset" />
          </mxGeometry>
        </mxCell>
        <mxCell id="VLocWE0LS9aWqX3UbAQ5-8" value="BSUs&lt;br&gt;=&lt;br&gt;max - 1" style="rhombus;whiteSpace=wrap;html=1;" vertex="1" parent="1">
          <mxGeometry x="660" y="2411" width="80" height="80" as="geometry" />
        </mxCell>
        <mxCell id="VLocWE0LS9aWqX3UbAQ5-18" style="edgeStyle=orthogonalEdgeStyle;rounded=0;orthogonalLoop=1;jettySize=auto;html=1;exitX=0.5;exitY=1;exitDx=0;exitDy=0;entryX=0.5;entryY=0;entryDx=0;entryDy=0;" edge="1" parent="1" target="NEFv17FfercwadhQsIlZ-61">
          <mxGeometry relative="1" as="geometry">
            <mxPoint x="354" y="1811" as="sourcePoint" />
          </mxGeometry>
        </mxCell>
        <mxCell id="VLocWE0LS9aWqX3UbAQ5-33" value="Create smaller BSU" style="rounded=0;whiteSpace=wrap;html=1;" vertex="1" parent="1">
          <mxGeometry x="630" y="2681" width="140" height="60" as="geometry" />
        </mxCell>
        <mxCell id="VLocWE0LS9aWqX3UbAQ5-43" style="edgeStyle=orthogonalEdgeStyle;rounded=0;orthogonalLoop=1;jettySize=auto;html=1;" edge="1" parent="1" source="VLocWE0LS9aWqX3UbAQ5-40" target="VLocWE0LS9aWqX3UbAQ5-33">
          <mxGeometry relative="1" as="geometry" />
        </mxCell>
        <mxCell id="VLocWE0LS9aWqX3UbAQ5-47" value="no" style="edgeLabel;html=1;align=center;verticalAlign=middle;resizable=0;points=[];" vertex="1" connectable="0" parent="VLocWE0LS9aWqX3UbAQ5-43">
          <mxGeometry x="-0.1515" y="2" relative="1" as="geometry">
            <mxPoint as="offset" />
          </mxGeometry>
        </mxCell>
        <mxCell id="VLocWE0LS9aWqX3UbAQ5-44" style="edgeStyle=orthogonalEdgeStyle;rounded=0;orthogonalLoop=1;jettySize=auto;html=1;entryX=0.5;entryY=1;entryDx=0;entryDy=0;" edge="1" parent="1" source="VLocWE0LS9aWqX3UbAQ5-40" target="NEFv17FfercwadhQsIlZ-72">
          <mxGeometry relative="1" as="geometry">
            <mxPoint x="770" y="2391" as="targetPoint" />
            <Array as="points">
              <mxPoint x="800" y="2585" />
              <mxPoint x="800" y="2361" />
              <mxPoint x="700" y="2361" />
            </Array>
          </mxGeometry>
        </mxCell>
        <mxCell id="VLocWE0LS9aWqX3UbAQ5-46" value="yes" style="edgeLabel;html=1;align=center;verticalAlign=middle;resizable=0;points=[];" vertex="1" connectable="0" parent="VLocWE0LS9aWqX3UbAQ5-44">
          <mxGeometry x="-0.9213" relative="1" as="geometry">
            <mxPoint x="14" as="offset" />
          </mxGeometry>
        </mxCell>
        <mxCell id="VLocWE0LS9aWqX3UbAQ5-40" value="Already&lt;br&gt;have smallest&lt;br&gt;BSU ?" style="rhombus;whiteSpace=wrap;html=1;" vertex="1" parent="1">
          <mxGeometry x="660" y="2545" width="80" height="80" as="geometry" />
        </mxCell>
        <mxCell id="VLocWE0LS9aWqX3UbAQ5-51" value="" style="edgeStyle=orthogonalEdgeStyle;rounded=0;orthogonalLoop=1;jettySize=auto;html=1;exitX=0.5;exitY=1;exitDx=0;exitDy=0;" edge="1" parent="1" source="NEFv17FfercwadhQsIlZ-25" target="VLocWE0LS9aWqX3UbAQ5-50">
          <mxGeometry relative="1" as="geometry">
            <mxPoint x="354" y="920" as="sourcePoint" />
            <mxPoint x="354" y="1140" as="targetPoint" />
          </mxGeometry>
        </mxCell>
        <mxCell id="VLocWE0LS9aWqX3UbAQ5-52" value="yes" style="edgeLabel;html=1;align=center;verticalAlign=middle;resizable=0;points=[];" vertex="1" connectable="0" parent="VLocWE0LS9aWqX3UbAQ5-51">
          <mxGeometry x="-0.45" y="1" relative="1" as="geometry">
            <mxPoint as="offset" />
          </mxGeometry>
        </mxCell>
        <mxCell id="VLocWE0LS9aWqX3UbAQ5-50" value="VG scan" style="rounded=0;whiteSpace=wrap;html=1;" vertex="1" parent="1">
          <mxGeometry x="284" y="1030" width="140" height="30" as="geometry" />
        </mxCell>
        <mxCell id="VLocWE0LS9aWqX3UbAQ5-54" value="" style="edgeStyle=orthogonalEdgeStyle;rounded=0;orthogonalLoop=1;jettySize=auto;html=1;entryX=0.5;entryY=0;entryDx=0;entryDy=0;" edge="1" parent="1" source="NEFv17FfercwadhQsIlZ-30" target="VLocWE0LS9aWqX3UbAQ5-53">
          <mxGeometry relative="1" as="geometry">
            <mxPoint x="354" y="1220" as="sourcePoint" />
            <mxPoint x="354" y="1450" as="targetPoint" />
          </mxGeometry>
        </mxCell>
        <mxCell id="VLocWE0LS9aWqX3UbAQ5-55" value="yes" style="edgeLabel;html=1;align=center;verticalAlign=middle;resizable=0;points=[];" vertex="1" connectable="0" parent="VLocWE0LS9aWqX3UbAQ5-54">
          <mxGeometry x="-0.6167" y="-1" relative="1" as="geometry">
            <mxPoint y="1" as="offset" />
          </mxGeometry>
        </mxCell>
        <mxCell id="VLocWE0LS9aWqX3UbAQ5-53" value="Enable VG" style="rounded=0;whiteSpace=wrap;html=1;" vertex="1" parent="1">
          <mxGeometry x="284" y="1290" width="140" height="30" as="geometry" />
        </mxCell>
        <mxCell id="VLocWE0LS9aWqX3UbAQ5-60" style="edgeStyle=orthogonalEdgeStyle;rounded=0;orthogonalLoop=1;jettySize=auto;html=1;" edge="1" parent="1" source="VLocWE0LS9aWqX3UbAQ5-57" target="NEFv17FfercwadhQsIlZ-61">
          <mxGeometry relative="1" as="geometry" />
        </mxCell>
        <mxCell id="VLocWE0LS9aWqX3UbAQ5-57" value="Extend LV" style="rounded=0;whiteSpace=wrap;html=1;" vertex="1" parent="1">
          <mxGeometry x="284" y="1780" width="140" height="30" as="geometry" />
        </mxCell>
        <mxCell id="VLocWE0LS9aWqX3UbAQ5-59" style="edgeStyle=orthogonalEdgeStyle;rounded=0;orthogonalLoop=1;jettySize=auto;html=1;" edge="1" parent="1" source="VLocWE0LS9aWqX3UbAQ5-58" target="VLocWE0LS9aWqX3UbAQ5-57">
          <mxGeometry relative="1" as="geometry" />
        </mxCell>
        <mxCell id="VLocWE0LS9aWqX3UbAQ5-58" value="Enable LV" style="rounded=0;whiteSpace=wrap;html=1;" vertex="1" parent="1">
          <mxGeometry x="284" y="1710" width="140" height="30" as="geometry" />
        </mxCell>
      </root>
    </mxGraphModel>
  </diagram>
</mxfile>
